<?xml version="1.0" standalone="no"?>
<!DOCTYPE svg PUBLIC "-//W3C//DTD SVG 20010904//EN"
 "http://www.w3.org/TR/2001/REC-SVG-20010904/DTD/svg10.dtd">
<svg version="1.0" xmlns="http://www.w3.org/2000/svg"
 width="480.000000pt" height="161.000000pt" viewBox="0 0 480.000000 161.000000"
 preserveAspectRatio="xMidYMid meet">

<g transform="translate(0.000000,161.000000) scale(0.100000,-0.100000)"
fill="#000000" stroke="none">
<path d="M585 1300 c-69 -14 -122 -37 -184 -79 -171 -117 -257 -339 -206 -536
69 -262 323 -425 586 -375 59 11 160 56 199 87 l24 21 -77 96 c-43 53 -80 96
-84 96 -3 0 -30 -12 -60 -26 -164 -81 -361 64 -339 250 11 96 78 174 173 202
118 34 233 -16 287 -124 22 -44 31 -119 18 -164 l-10 -36 112 -42 c61 -24 116
-45 123 -47 14 -5 43 117 43 180 0 180 -108 360 -266 444 -103 55 -231 75
-339 53z m259 -30 c53 -18 156 -75 156 -86 0 -3 -35 -44 -77 -93 -77 -89 -77
-89 -100 -71 -45 35 -148 49 -222 29 -20 -6 -114 203 -96 213 71 41 234 45
339 8z m-317 -121 c23 -52 42 -99 42 -106 1 -6 -12 -20 -29 -29 -36 -22 -83
-86 -99 -136 -14 -43 -7 -42 -142 -26 l-101 11 5 43 c7 64 57 162 116 226 54
59 137 121 155 115 6 -2 29 -46 53 -98z m573 -77 c49 -74 74 -165 74 -267 0
-92 -16 -165 -37 -164 -7 0 -55 17 -107 38 l-95 37 3 65 c4 72 -13 131 -53
183 l-25 33 76 87 77 87 29 -28 c16 -15 42 -48 58 -71z m-785 -237 c113 -9
115 -10 115 -53 1 -48 29 -110 75 -160 l36 -41 -56 -96 c-32 -52 -61 -95 -65
-95 -3 0 -34 24 -67 54 -73 67 -138 187 -152 284 -12 78 -5 124 18 118 9 -2
52 -7 96 -11z"/>
<path d="M1635 1031 c-87 -21 -156 -77 -197 -159 -20 -41 -23 -62 -23 -163 0
-113 1 -118 35 -185 43 -85 96 -128 177 -144 147 -31 277 30 329 155 20 48 19
51 -24 62 l-38 10 -27 -58 c-31 -66 -70 -96 -138 -105 -92 -13 -169 29 -210
113 -31 63 -34 213 -6 285 58 151 272 174 347 37 24 -43 27 -45 58 -38 45 9
46 12 26 55 -52 110 -180 166 -309 135z"/>
<path d="M2213 1026 c-88 -28 -133 -85 -133 -168 0 -80 52 -134 160 -164 216
-60 240 -74 240 -139 0 -99 -157 -147 -274 -82 -31 17 -45 33 -60 72 -11 28
-21 51 -22 53 -1 2 -18 0 -39 -4 -34 -6 -36 -8 -29 -38 26 -121 113 -181 264
-181 74 0 92 4 135 28 62 34 97 83 103 145 9 98 -49 164 -175 196 -148 38
-173 47 -199 70 -34 29 -35 78 -3 112 43 46 149 55 219 19 30 -16 60 -61 60
-91 0 -14 7 -16 36 -11 20 3 39 9 42 12 3 2 -1 24 -8 47 -32 107 -182 166
-317 124z"/>
<path d="M3118 1027 c-64 -18 -122 -60 -158 -115 -43 -65 -55 -114 -55 -217 1
-75 5 -99 27 -146 67 -145 222 -212 373 -161 l59 20 65 -39 c66 -40 74 -40 85
-2 6 18 1 25 -31 42 -68 36 -67 33 -29 89 43 65 60 138 54 238 -8 131 -61 220
-164 270 -65 31 -157 40 -226 21z m155 -68 c53 -14 112 -71 134 -127 36 -94
17 -268 -35 -315 -16 -15 -23 -14 -77 14 l-60 30 -12 -28 c-11 -27 -10 -29 28
-47 21 -11 39 -23 39 -27 0 -15 -95 -22 -140 -10 -103 28 -161 116 -163 244
-2 101 18 163 68 212 59 59 133 78 218 54z"/>
<path d="M4120 985 l0 -45 40 0 40 0 0 45 0 45 -40 0 -40 0 0 -45z"/>
<path d="M3620 670 c0 -233 12 -265 111 -291 59 -16 111 -5 153 31 19 17 36
30 40 30 3 0 6 -13 6 -30 0 -27 3 -30 30 -30 l30 0 0 235 0 235 -35 0 -35 0 0
-150 c0 -168 -11 -215 -59 -243 -38 -22 -103 -22 -131 1 -30 24 -39 81 -40
250 l0 142 -35 0 -35 0 0 -180z"/>
<path d="M4120 615 l0 -235 40 0 40 0 0 235 0 235 -40 0 -40 0 0 -235z"/>
<path d="M4300 820 l0 -30 135 0 c74 0 135 -3 135 -7 -1 -5 -66 -82 -145 -173
-122 -140 -145 -170 -145 -197 l0 -33 205 0 205 0 0 36 0 36 -155 -3 c-85 -2
-155 -3 -155 -2 0 2 65 80 145 174 113 134 145 178 145 200 l0 29 -185 0 -185
0 0 -30z"/>
</g>
</svg>
